<?xml version="1.0" standalone="no"?>
<!DOCTYPE svg PUBLIC "-//W3C//DTD SVG 20010904//EN"
 "http://www.w3.org/TR/2001/REC-SVG-20010904/DTD/svg10.dtd">
<svg version="1.0" xmlns="http://www.w3.org/2000/svg"
 width="831.000000pt" height="831.000000pt" viewBox="0 0 831.000000 831.000000"
 preserveAspectRatio="xMidYMid meet">
<metadata>
Created by potrace 1.11, written by Peter Selinger 2001-2013
</metadata>
<g transform="translate(0.000000,831.000000) scale(0.100000,-0.100000)"
fill="#000000" stroke="none">
<path d="M4087 8304 c-1 -1 -60 -4 -132 -8 -71 -3 -141 -8 -155 -10 -14 -2
-47 -7 -75 -10 -27 -3 -63 -9 -80 -11 -41 -8 -132 -23 -175 -30 -135 -23 -457
-120 -625 -190 -757 -314 -1379 -888 -1752 -1615 -177 -346 -304 -754 -348
-1125 -4 -27 -8 -61 -10 -75 -22 -145 -22 -580 0 -720 2 -14 7 -47 10 -75 3
-27 7 -63 9 -80 8 -59 38 -211 53 -270 8 -33 16 -67 18 -75 8 -39 67 -234 95
-310 117 -324 311 -680 497 -915 5 -5 26 -32 48 -60 113 -142 228 -262 542
-565 77 -74 248 -239 379 -366 131 -127 269 -260 305 -295 369 -355 482 -465
548 -529 78 -76 511 -494 605 -584 28 -27 114 -110 192 -185 77 -75 155 -149
173 -166 l31 -29 63 66 c34 36 163 171 287 298 475 491 795 823 856 886 27 29
153 159 279 289 127 130 254 262 284 294 30 31 154 160 276 286 314 324 360
372 418 438 29 33 65 73 81 90 94 104 271 361 373 542 46 80 153 298 153 311
0 2 9 23 19 47 21 45 101 262 106 287 2 8 15 54 29 102 21 75 47 184 62 268 3
14 7 32 9 40 5 17 11 55 19 120 3 25 8 55 11 68 27 139 27 716 -1 856 -2 11
-7 41 -10 66 -3 25 -7 52 -9 60 -1 8 -6 35 -10 60 -4 25 -16 83 -27 130 -11
47 -21 92 -23 100 -47 222 -226 666 -350 865 -14 22 -29 50 -35 63 -5 12 -14
28 -20 35 -5 6 -41 59 -80 117 -163 246 -425 537 -640 710 -30 25 -64 52 -75
62 -75 64 -266 195 -395 271 -371 216 -812 372 -1222 432 -89 12 -106 15 -158
20 -107 11 -415 25 -423 19z m-1362 -979 c22 -3 51 -8 65 -11 14 -3 32 -7 40
-8 8 -2 29 -8 45 -15 17 -6 44 -17 60 -23 59 -23 141 -72 200 -118 61 -48 171
-160 157 -160 -4 0 -2 -4 4 -8 12 -9 76 -114 97 -162 49 -111 71 -220 70 -355
-1 -69 -8 -160 -13 -160 -1 0 -4 -13 -6 -28 -3 -16 -16 -59 -30 -95 -14 -37
-26 -73 -26 -79 -1 -7 -5 -13 -9 -13 -8 0 -24 -40 -21 -52 1 -5 -2 -8 -6 -8
-5 0 -23 -22 -41 -50 -32 -49 -177 -200 -192 -200 -4 0 -14 -6 -21 -12 -48
-44 -215 -119 -293 -132 -5 -1 -14 -4 -20 -7 -17 -9 -86 -14 -185 -13 -115 1
-158 6 -236 30 -32 9 -61 18 -64 19 -23 5 -112 52 -170 89 -156 101 -286 270
-344 447 -47 145 -54 345 -17 482 21 81 69 199 83 205 4 2 8 9 8 15 0 7 18 36
40 65 22 28 38 52 36 52 -7 0 121 119 161 150 65 50 217 121 291 135 9 2 17 4
17 5 0 4 47 11 110 17 39 3 71 7 73 8 3 3 85 -3 137 -10z m2785 -1619 c275
-15 320 -36 431 -206 137 -210 240 -412 349 -680 12 -30 28 -68 35 -85 28 -63
168 -440 191 -515 10 -32 9 -25 18 -100 4 -36 9 -76 11 -90 15 -95 27 -534 16
-555 -3 -5 -7 -21 -9 -35 -1 -14 -13 -54 -24 -90 -66 -202 -240 -345 -427
-353 l-48 -2 0 -185 c0 -218 -6 -308 -22 -338 -12 -22 -44 -44 -71 -49 -99
-17 -262 -20 -302 -4 -46 17 -46 19 -63 286 -1 28 -4 104 -5 171 l-3 121 -926
0 -926 0 -1 -131 c0 -72 -3 -193 -7 -270 -7 -155 -13 -170 -76 -183 -65 -12
-219 -5 -287 15 -81 22 -85 37 -86 370 -1 131 -5 192 -12 193 -6 1 -24 3 -41
4 -158 15 -304 115 -382 261 -57 106 -76 199 -77 369 -1 135 7 290 18 385 3
19 7 65 11 102 3 37 12 85 20 107 7 21 11 42 8 45 -4 3 0 6 7 6 7 0 10 3 7 7
-4 3 -2 11 3 18 5 6 11 20 13 31 3 22 14 50 141 374 103 264 219 520 239 528
4 2 7 12 7 22 0 9 7 23 15 30 8 7 15 16 15 21 0 13 105 182 162 261 40 55 60
73 111 97 67 33 102 38 296 46 69 3 126 6 127 8 6 5 1423 -1 1544 -7z"/>
<path d="M2443 7140 c-98 -25 -190 -71 -262 -130 -13 -11 -29 -20 -34 -20 -6
0 -8 -3 -4 -6 3 -3 -8 -18 -24 -31 -58 -49 -132 -175 -165 -282 -25 -80 -30
-247 -9 -332 10 -41 21 -78 26 -84 4 -5 8 -14 9 -20 10 -47 78 -155 130 -207
21 -20 35 -40 32 -43 -3 -3 -1 -5 5 -5 6 0 28 -13 49 -30 22 -16 44 -33 49
-37 40 -31 220 -98 236 -88 4 3 10 1 13 -3 8 -13 261 -5 261 8 0 1 9 3 20 4
40 6 134 48 191 85 57 37 174 141 159 141 -4 0 4 11 18 25 14 14 41 58 60 98
73 149 89 285 54 467 -12 63 -70 182 -117 242 -72 91 -228 209 -296 222 -10 3
-31 9 -47 15 -80 31 -253 36 -354 11z m377 -359 c25 -13 51 -31 58 -40 80
-101 76 -263 -8 -349 -48 -50 -119 -72 -246 -76 -54 -2 -102 -4 -106 -5 -5 -1
-8 -64 -8 -140 0 -102 -3 -140 -12 -143 -7 -2 -60 -4 -118 -4 l-105 1 -3 393
-2 394 252 -4 c244 -3 255 -4 298 -27z"/>
<path d="M2510 6560 l0 -93 66 6 c86 6 118 29 122 84 5 66 -20 87 -112 91
l-76 4 0 -92z"/>
<path d="M3908 5545 c-2 -1 -28 -5 -58 -8 -90 -10 -107 -13 -142 -28 -36 -14
-40 -17 -79 -51 -48 -42 -141 -211 -223 -406 -14 -34 -38 -88 -52 -119 -14
-32 -32 -71 -40 -88 -26 -60 -55 -157 -60 -208 -5 -43 -2 -57 15 -79 25 -31
91 -55 176 -64 33 -3 63 -8 66 -10 18 -11 386 -16 1189 -15 492 0 895 0 895 1
0 1 145 10 175 11 8 0 51 5 95 11 44 6 86 11 93 11 6 0 12 4 12 9 0 5 4 6 10
3 11 -7 47 10 76 37 18 16 21 28 18 76 -4 67 -8 89 -17 98 -4 4 -7 14 -7 21 0
12 -41 114 -98 243 -9 19 -16 37 -17 40 -3 9 -42 95 -90 195 -100 209 -166
281 -275 299 -19 3 -48 9 -65 12 -27 6 -1591 14 -1597 9z"/>
<path d="M3207 4076 c-94 -34 -158 -91 -205 -181 -23 -43 -26 -62 -27 -145 0
-82 4 -102 27 -152 42 -90 141 -172 233 -194 17 -4 62 -6 102 -6 180 3 330
148 338 328 4 71 -10 137 -35 174 -10 14 -18 29 -18 33 -1 24 -117 127 -144
127 -9 0 -19 4 -22 9 -18 29 -179 33 -249 7z"/>
<path d="M5958 4095 c-2 -2 -15 -6 -30 -9 -14 -2 -36 -9 -47 -16 -12 -6 -21
-8 -21 -5 0 10 -84 -52 -117 -87 -52 -54 -86 -141 -87 -218 0 -87 7 -119 39
-178 90 -166 291 -232 461 -153 69 32 133 90 155 139 8 17 17 32 20 32 4 0 13
24 20 52 53 225 -97 429 -327 443 -34 2 -63 2 -66 0z"/>
<path d="M4062 4040 c-96 -44 -120 -114 -59 -175 61 -61 72 -62 682 -60 512 1
552 2 585 19 52 27 79 56 86 90 9 48 -10 82 -63 113 l-48 28 -570 2 c-547 3
-572 2 -613 -17z"/>
<path d="M4116 3712 c-2 -1 -16 -5 -31 -8 -33 -6 -78 -36 -100 -67 -35 -51 1
-123 80 -158 37 -17 80 -18 608 -18 418 0 567 2 567 11 0 6 3 9 6 5 4 -3 21 1
38 10 100 52 99 155 -4 205 -45 22 -48 22 -603 23 -307 0 -560 -1 -561 -3z"/>
</g>
</svg>
